<svg width="50" height="58" viewBox="0 0 50 58" fill="none" xmlns="http://www.w3.org/2000/svg">
<g clip-path="url(#clip0_515_226)">
<path d="M6.94531 58.3883H38.7543C40.9633 58.3883 42.7543 56.4283 42.7543 54.0109V32.123H2.94531V54.0109C2.94531 56.4283 4.73631 58.3883 6.94531 58.3883Z" fill="#FFFEFE"/>
<path d="M0.460938 24.0065V29.882H45.2439V24.0065C45.2439 21.5891 43.4529 19.6291 41.2439 19.6291H29.5349C35.0959 19.6291 43.0919 13.723 41.3399 7.46008C39.8769 2.22804 35.4859 -0.418074 30.9989 -0.387432C24.6639 -0.348036 23.0219 14.1859 23.0219 14.1859H22.8519C22.8519 14.1859 21.2109 -0.348036 14.8749 -0.387432C10.3869 -0.418074 5.99694 2.22804 4.53394 7.46008C2.78094 13.723 10.7779 19.6291 16.3409 19.6291H4.46094C2.25194 19.6291 0.460938 21.5891 0.460938 24.0065ZM35.6579 4.89495C35.6579 4.89495 35.4619 12.0475 26.6789 17.389C26.6799 17.389 28.3389 8.20642 35.6579 4.89495ZM10.2899 4.89495C17.6069 8.20532 19.2659 17.389 19.2659 17.389C10.4849 12.0475 10.2899 4.89495 10.2899 4.89495Z" fill="#FFFEFE"/>
</g>
<defs>
<clipPath id="clip0_515_226">
<rect width="50" height="58" fill="white"/>
</clipPath>
</defs>
</svg>
