<svg width="22" height="21" viewBox="0 0 22 21" fill="none" xmlns="http://www.w3.org/2000/svg">
<path d="M9.40625 1.64062C8.9375 2.10938 8.98438 2.8125 9.40625 3.28125L15.0781 8.625H1.625C0.96875 8.625 0.5 9.14062 0.5 9.75V11.25C0.5 11.9062 0.96875 12.375 1.625 12.375H15.0781L9.40625 17.7656C8.98438 18.2344 8.98438 18.9375 9.40625 19.4062L10.4375 20.4375C10.9062 20.8594 11.6094 20.8594 12.0312 20.4375L21.1719 11.2969C21.5938 10.875 21.5938 10.1719 21.1719 9.70312L12.0312 0.609375C11.6094 0.1875 10.9062 0.1875 10.4375 0.609375L9.40625 1.64062Z" fill="#33313F"/>
</svg>
