<svg width="23" height="16" viewBox="0 0 23 16" fill="none" xmlns="http://www.w3.org/2000/svg">
<path d="M22.3438 7.45312C20.2344 3.3125 16.0156 0.5 11.25 0.5C6.44531 0.5 2.22656 3.3125 0.117188 7.45312C0.0390625 7.60938 0 7.80469 0 8C0 8.23438 0.0390625 8.42969 0.117188 8.58594C2.22656 12.7266 6.44531 15.5 11.25 15.5C16.0156 15.5 20.2344 12.7266 22.3438 8.58594C22.4219 8.42969 22.4609 8.23438 22.4609 8.03906C22.4609 7.80469 22.4219 7.60938 22.3438 7.45312ZM11.25 13.625C8.125 13.625 5.625 11.125 5.625 8C5.625 4.91406 8.125 2.375 11.25 2.375C14.3359 2.375 16.875 4.91406 16.875 8V8.03906C16.875 11.125 14.3359 13.6641 11.25 13.6641V13.625ZM11.25 4.25C10.8984 4.28906 10.5469 4.32812 10.2344 4.40625C10.4688 4.71875 10.5859 5.10938 10.5859 5.53906C10.5859 6.55469 9.76562 7.375 8.75 7.375C8.32031 7.375 7.92969 7.25781 7.61719 7.02344C7.53906 7.33594 7.5 7.6875 7.5 8C7.5 10.0703 9.17969 11.75 11.25 11.75C13.3203 11.75 15 10.0703 15 8C15 5.92969 13.3203 4.28906 11.25 4.28906V4.25Z" fill="#3011BC"/>
</svg>
