<svg width="16" height="17" viewBox="0 0 16 17" fill="none" xmlns="http://www.w3.org/2000/svg">
<path d="M15.5312 11.8125L12.0312 10.3125C11.9375 10.2812 11.8438 10.25 11.7188 10.25C11.5 10.25 11.2812 10.375 11.1562 10.5312L9.59375 12.4375C7.15625 11.2812 5.21875 9.34375 4.0625 6.90625L5.96875 5.34375C6.125 5.21875 6.25 5 6.25 4.75C6.25 4.65625 6.21875 4.5625 6.1875 4.46875L4.6875 0.96875C4.5625 0.6875 4.28125 0.5 3.96875 0.5C3.9375 0.5 3.875 0.53125 3.8125 0.53125L0.5625 1.28125C0.21875 1.375 0 1.65625 0 2C0 10.0312 6.46875 16.5 14.5 16.5C14.8438 16.5 15.125 16.2812 15.2188 15.9375L15.9688 12.6875C15.9688 12.625 15.9688 12.5625 15.9688 12.5312C15.9688 12.2188 15.7812 11.9375 15.5312 11.8125Z" fill="#FFFEFE"/>
</svg>
