<svg width="12" height="14" viewBox="0 0 12 14" fill="none" xmlns="http://www.w3.org/2000/svg">
<path d="M0.304688 5.5C0.126953 5.5 0 5.65234 0 5.80469V12.4062C0 13.0918 0.533203 13.625 1.21875 13.625H10.1562C10.8164 13.625 11.375 13.0918 11.375 12.4062V5.80469C11.375 5.65234 11.2227 5.5 11.0703 5.5H0.304688ZM11.375 4.38281V3.46875C11.375 2.80859 10.8164 2.25 10.1562 2.25H8.9375V0.929688C8.9375 0.777344 8.78516 0.625 8.63281 0.625H7.61719C7.43945 0.625 7.3125 0.777344 7.3125 0.929688V2.25H4.0625V0.929688C4.0625 0.777344 3.91016 0.625 3.75781 0.625H2.74219C2.56445 0.625 2.4375 0.777344 2.4375 0.929688V2.25H1.21875C0.533203 2.25 0 2.80859 0 3.46875V4.38281C0 4.56055 0.126953 4.6875 0.304688 4.6875H11.0703C11.2227 4.6875 11.375 4.56055 11.375 4.38281Z" fill="#4C5A66"/>
</svg>
