<svg width="10" height="14" viewBox="0 0 10 14" fill="none" xmlns="http://www.w3.org/2000/svg">
<path d="M4.36719 13.3711C4.5957 13.7266 5.12891 13.7266 5.35742 13.3711C9.06445 8.03906 9.75 7.48047 9.75 5.5C9.75 2.80859 7.56641 0.625 4.875 0.625C2.1582 0.625 0 2.80859 0 5.5C0 7.48047 0.660156 8.03906 4.36719 13.3711ZM4.875 7.53125C3.73242 7.53125 2.84375 6.64258 2.84375 5.5C2.84375 4.38281 3.73242 3.46875 4.875 3.46875C5.99219 3.46875 6.90625 4.38281 6.90625 5.5C6.90625 6.64258 5.99219 7.53125 4.875 7.53125Z" fill="#4C5A66"/>
</svg>
