<svg width="14" height="14" viewBox="0 0 14 14" fill="none" xmlns="http://www.w3.org/2000/svg">
<path d="M0 6.54883C0 6.87891 0.126953 7.18359 0.355469 7.41211L5.71289 12.7695C6.19531 13.252 6.98242 13.252 7.43945 12.7695L12.6191 7.58984C13.1016 7.13281 13.1016 6.3457 12.6191 5.86328L7.26172 0.505859C7.0332 0.277344 6.72852 0.125 6.39844 0.125H1.21875C0.533203 0.125 0 0.683594 0 1.34375V6.54883ZM2.84375 1.75C3.50391 1.75 4.0625 2.30859 4.0625 2.96875C4.0625 3.6543 3.50391 4.1875 2.84375 4.1875C2.1582 4.1875 1.625 3.6543 1.625 2.96875C1.625 2.30859 2.1582 1.75 2.84375 1.75Z" fill="#FE7A15"/>
</svg>
