<svg width="44" height="53" viewBox="0 0 44 53" fill="none" xmlns="http://www.w3.org/2000/svg">
<path fill-rule="evenodd" clip-rule="evenodd" d="M24.0343 0.504592C25.0091 0.919445 25.7873 1.7961 40.7285 15.5441C42.452 17.1303 43.4413 19.3876 43.4412 21.7386V46.7313C43.4412 49.676 41.0575 52.0728 38.1279 52.0728H5.31326C2.38378 52.0728 0 49.676 0 46.7313V21.7386C0 19.3876 0.989203 17.1303 2.71388 15.5441L18.0523 1.43056C19.5909 0.0151715 21.8184 -0.373102 23.6903 0.369454C23.8197 0.419709 23.9282 0.459412 24.0343 0.504592ZM22.0845 8.745C21.1099 8.56208 20.2388 9.23655 20.1398 10.1863C20.0584 10.9875 20.5844 11.7703 21.4461 11.9501C22.3484 12.1195 23.1832 11.5542 23.3679 10.6668C23.5416 9.83378 23.0166 8.93935 22.0845 8.745ZM13.5519 19.1719C10.7127 19.1719 8.403 21.7376 8.403 24.8915C8.403 28.0454 10.7127 30.6121 13.5519 30.6121C16.392 30.6121 18.7017 28.0454 18.7017 24.8915C18.7017 21.7376 16.3921 19.1719 13.5519 19.1719ZM16.2657 40.0182C15.8106 41.1013 16.6165 42.2853 17.7713 42.2853C18.4108 42.2853 19.0166 41.9084 19.2791 41.283L27.2354 22.3226C27.5841 21.4903 27.193 20.5316 26.3606 20.1829C25.5283 19.8332 24.5707 20.2254 24.221 21.0577L16.2657 40.0182ZM24.8932 37.8557C24.8932 41.0096 27.2028 43.5752 30.0419 43.5752C32.8811 43.5752 35.1918 41.0096 35.1918 37.8557C35.1918 34.7018 32.8811 32.1351 30.0419 32.1351C27.2029 32.1351 24.8932 34.7018 24.8932 37.8557ZM13.5514 22.4402C12.5317 22.4402 11.6709 23.5634 11.6709 24.8915C11.6709 26.2206 12.5315 27.3438 13.5514 27.3438C14.5711 27.3438 15.4328 26.2206 15.4328 24.8915C15.4328 23.5634 14.5711 22.4402 13.5514 22.4402ZM30.0445 35.4034C29.0248 35.4034 28.1641 36.5266 28.1641 37.8557C28.1641 39.1837 29.0247 40.3069 30.0445 40.3069C31.0642 40.3069 31.9261 39.1837 31.9261 37.8557C31.9261 36.5266 31.0642 35.4034 30.0445 35.4034Z" fill="#FFFEFE"/>
</svg>
