<svg width="51" height="51" viewBox="0 0 51 51" fill="none" xmlns="http://www.w3.org/2000/svg">
<path d="M37.6403 21.7424C53.0703 5.95735 51.3947 1.64455 50.3859 0.63424C49.3772 -0.376067 44.9716 -2.15413 29.2116 13.3003L10.4964 5.80137C9.94255 5.57926 9.30924 5.70941 8.88633 6.13299L4.66168 10.3643C3.96663 11.0605 4.1151 12.2299 4.99277 12.731L21.1345 21.7124C17.4368 25.7794 14.062 29.7877 11.4732 33.1989H3.60517C3.20915 33.1989 2.82936 33.3564 2.54935 33.6369L0.437027 35.7525C0.0708823 36.1193 -0.0786823 36.6493 0.0399139 37.1544C0.157514 37.6565 0.529833 38.0645 1.02075 38.2299L6.88125 40.1864C6.15514 41.6947 5.77146 43.2112 6.77401 44.2153C7.77655 45.2194 9.29062 44.8351 10.7965 44.1079L12.75 49.9776C12.9125 50.4658 13.3183 50.842 13.8237 50.96C14.328 51.0788 14.8572 50.929 15.2233 50.5623L17.3356 48.4466C17.6156 48.1662 17.773 47.7858 17.773 47.3891V39.5086C21.1787 36.9157 25.1806 33.5356 29.2414 29.8321L38.2085 45.9993C38.7192 46.8934 39.8883 47.0151 40.5714 46.331L44.7962 42.0996C45.2191 41.6761 45.349 41.0418 45.1273 40.487L37.6403 21.7424Z" fill="#FFFEFE"/>
</svg>
