<svg width="52" height="52" viewBox="0 0 52 52" fill="none" xmlns="http://www.w3.org/2000/svg">
<path d="M26 0C11.663 0 0 11.663 0 26C0 40.337 11.663 52 26 52C40.337 52 52 40.337 52 26C52 11.663 40.337 0 26 0ZM38.3652 39.4483C37.9427 39.8708 37.3881 40.0835 36.8335 40.0835C36.2788 40.0835 35.7238 39.8708 35.3017 39.4483L24.4682 28.6152C24.0608 28.2102 23.8335 27.6595 23.8335 27.0835V13C23.8335 11.8019 24.8039 10.8335 26 10.8335C27.1961 10.8335 28.1665 11.8019 28.1665 13V26.1865L38.3652 36.3848C39.2122 37.2322 39.2122 38.6013 38.3652 39.4483Z" fill="#FFFEFE"/>
</svg>
