<svg width="58" height="59" viewBox="0 0 58 59" fill="none" xmlns="http://www.w3.org/2000/svg">
<g clip-path="url(#clip0_515_287)">
<path d="M25.6016 44.6797H32.3984V58.5H25.6016V44.6797Z" fill="#FFFEFE"/>
<path d="M13.7109 58.5H22.2044V41.2812H35.7982V58.5H44.332V0.5H13.7109V58.5ZM37.4974 7.29688H40.8958V10.6953H37.4974V7.29688ZM37.4974 14.0938H40.8958V17.4922H37.4974V14.0938ZM37.4974 20.8906H40.8958V24.2891H37.4974V20.8906ZM37.4974 27.6875H40.8958V31.0859H37.4974V27.6875ZM37.4974 34.4844H40.8958V37.8828H37.4974V34.4844ZM30.7005 7.29688H34.099V10.6953H30.7005V7.29688ZM30.7005 14.0938H34.099V17.4922H30.7005V14.0938ZM30.7005 20.8906H34.099V24.2891H30.7005V20.8906ZM30.7005 27.6875H34.099V31.0859H30.7005V27.6875ZM30.7005 34.4844H34.099V37.8828H30.7005V34.4844ZM23.9036 7.29688H27.3021V10.6953H23.9036V7.29688ZM23.9036 14.0938H27.3021V17.4922H23.9036V14.0938ZM23.9036 20.8906H27.3021V24.2891H23.9036V20.8906ZM23.9036 27.6875H27.3021V31.0859H23.9036V27.6875ZM23.9036 34.4844H27.3021V37.8828H23.9036V34.4844ZM17.1068 7.29688H20.5052V10.6953H17.1068V7.29688ZM17.1068 14.0938H20.5052V17.4922H17.1068V14.0938ZM17.1068 20.8906H20.5052V24.2891H17.1068V20.8906ZM17.1068 27.6875H20.5052V31.0859H17.1068V27.6875ZM17.1068 34.4844H20.5052V37.8828H17.1068V34.4844Z" fill="#FFFEFE"/>
<path d="M47.6523 14.0938H58.0021V58.5H47.6523V14.0938Z" fill="#FFFEFE"/>
<path d="M0 14.0938H10.3081V58.5H0V14.0938Z" fill="#FFFEFE"/>
</g>
<defs>
<clipPath id="clip0_515_287">
<rect width="58" height="58" fill="white" transform="translate(0 0.5)"/>
</clipPath>
</defs>
</svg>
