<svg width="19" height="17" viewBox="0 0 19 17" fill="none" xmlns="http://www.w3.org/2000/svg">
<path d="M15.5 6.5H11.9062L8.625 0.78125C8.53125 0.625 8.375 0.5 8.1875 0.5H6.15625C5.8125 0.5 5.5625 0.84375 5.65625 1.15625L7.1875 6.5H4L2.625 4.71875C2.53125 4.59375 2.40625 4.5 2.25 4.5H1C0.65625 4.5 0.40625 4.8125 0.5 5.125L1.5 8.5L0.5 11.9062C0.40625 12.2188 0.65625 12.5 1 12.5H2.25C2.40625 12.5 2.53125 12.4375 2.625 12.3125L4 10.5H7.1875L5.65625 15.875C5.5625 16.1875 5.8125 16.5 6.15625 16.5H8.1875C8.375 16.5 8.53125 16.4062 8.625 16.25L11.9062 10.5H15.5C16.5938 10.5 18.5 9.625 18.5 8.5C18.5 7.40625 16.5938 6.5 15.5 6.5Z" fill="#607080"/>
</svg>
