<svg width="19" height="17" viewBox="0 0 19 17" fill="none" xmlns="http://www.w3.org/2000/svg">
<path d="M18 2.5C18.25 2.5 18.5 2.28125 18.5 2V1C18.5 0.75 18.25 0.5 18 0.5H1C0.71875 0.5 0.5 0.75 0.5 1V2C0.5 2.28125 0.71875 2.5 1 2.5H1.46875V14.5H1C0.71875 14.5 0.5 14.75 0.5 15V16C0.5 16.2812 0.71875 16.5 1 16.5H8.5V14C8.5 13.75 8.71875 13.5 9 13.5H10C10.25 13.5 10.5 13.75 10.5 14V16.5H18C18.25 16.5 18.5 16.2812 18.5 16V15C18.5 14.75 18.25 14.5 18 14.5H17.5V2.5H18ZM8.5 3.90625C8.5 3.71875 8.6875 3.5 8.875 3.5H10.0938C10.2812 3.5 10.5 3.71875 10.5 3.90625V5.125C10.5 5.3125 10.2812 5.5 10.0938 5.5H8.875C8.6875 5.5 8.5 5.3125 8.5 5.125V3.90625ZM8.5 6.90625C8.5 6.71875 8.6875 6.5 8.875 6.5H10.0938C10.2812 6.5 10.5 6.71875 10.5 6.90625V8.125C10.5 8.3125 10.2812 8.5 10.0938 8.5H8.875C8.6875 8.5 8.5 8.3125 8.5 8.125V6.90625ZM4.5 3.90625C4.5 3.71875 4.6875 3.5 4.875 3.5H6.09375C6.28125 3.5 6.5 3.71875 6.5 3.90625V5.125C6.5 5.3125 6.28125 5.5 6.09375 5.5H4.875C4.6875 5.5 4.5 5.3125 4.5 5.125V3.90625ZM6.09375 8.5H4.875C4.6875 8.5 4.5 8.3125 4.5 8.125V6.90625C4.5 6.71875 4.6875 6.5 4.875 6.5H6.09375C6.28125 6.5 6.5 6.71875 6.5 6.90625V8.125C6.5 8.3125 6.28125 8.5 6.09375 8.5ZM6.5 12.5C6.5 10.8438 7.8125 9.5 9.5 9.5C11.1562 9.5 12.5 10.8438 12.5 12.5H6.5ZM14.5 8.125C14.5 8.3125 14.2812 8.5 14.0938 8.5H12.875C12.6875 8.5 12.5 8.3125 12.5 8.125V6.90625C12.5 6.71875 12.6875 6.5 12.875 6.5H14.0938C14.2812 6.5 14.5 6.71875 14.5 6.90625V8.125ZM14.5 5.125C14.5 5.3125 14.2812 5.5 14.0938 5.5H12.875C12.6875 5.5 12.5 5.3125 12.5 5.125V3.90625C12.5 3.71875 12.6875 3.5 12.875 3.5H14.0938C14.2812 3.5 14.5 3.71875 14.5 3.90625V5.125Z" fill="#607080"/>
</svg>
