<svg width="95" height="25" viewBox="0 0 95 25" fill="none" xmlns="http://www.w3.org/2000/svg">
<rect x="11.0537" y="-1.3252" width="12" height="25" rx="6" transform="rotate(30 11.0537 -1.3252)" fill="#3011BC"/>
<rect x="27.9458" y="-1.3252" width="12" height="25" rx="6" transform="rotate(30 27.9458 -1.3252)" fill="#FE7A15"/>
<path d="M51.072 7.62H53.392L50.864 18.5H46.784L44.256 7.62H46.576L48.464 16.58H49.184L51.072 7.62ZM54.5959 11.412C55.1612 10.676 56.1052 10.308 57.4279 10.308C58.7505 10.308 59.6945 10.676 60.2599 11.412C60.8252 12.1373 61.1079 13.1613 61.1079 14.484C61.1079 17.2893 59.8812 18.692 57.4279 18.692C54.9745 18.692 53.7479 17.2893 53.7479 14.484C53.7479 13.1613 54.0305 12.1373 54.5959 11.412ZM56.2439 16.292C56.4679 16.676 56.8625 16.868 57.4279 16.868C57.9932 16.868 58.3825 16.676 58.5959 16.292C58.8199 15.908 58.9319 15.3053 58.9319 14.484C58.9319 13.6627 58.8199 13.0653 58.5959 12.692C58.3825 12.3187 57.9932 12.132 57.4279 12.132C56.8625 12.132 56.4679 12.3187 56.2439 12.692C56.0305 13.0653 55.9239 13.6627 55.9239 14.484C55.9239 15.3053 56.0305 15.908 56.2439 16.292ZM61.8029 10.5H63.9149L65.3709 16.676H65.7389L67.1949 10.5H69.3069L66.4909 21.86H64.3949L65.2749 18.5H63.7709L61.8029 10.5ZM76.5419 12.996V16.324C76.5632 16.58 76.6059 16.7613 76.6699 16.868C76.7339 16.964 76.8672 17.0333 77.0699 17.076L77.0059 18.692C76.4619 18.692 76.0245 18.6547 75.6939 18.58C75.3739 18.5053 75.0485 18.356 74.7179 18.132C73.9499 18.5053 73.1659 18.692 72.3659 18.692C70.7125 18.692 69.8859 17.8173 69.8859 16.068C69.8859 15.2147 70.1152 14.612 70.5739 14.26C71.0325 13.8973 71.7365 13.684 72.6859 13.62L74.3979 13.492V12.996C74.3979 12.6653 74.3232 12.4413 74.1739 12.324C74.0245 12.196 73.7845 12.132 73.4539 12.132L70.4459 12.26L70.3819 10.772C71.5232 10.4627 72.6059 10.308 73.6299 10.308C74.6645 10.308 75.4059 10.5213 75.8539 10.948C76.3125 11.3747 76.5419 12.0573 76.5419 12.996ZM72.9419 15.108C72.3445 15.1613 72.0459 15.4813 72.0459 16.068C72.0459 16.6547 72.3072 16.948 72.8299 16.948C73.2352 16.948 73.6779 16.884 74.1579 16.756L74.3979 16.692V14.98L72.9419 15.108ZM85.8338 19.492C85.8338 20.4093 85.4818 21.0867 84.7778 21.524C84.0738 21.9613 83.1191 22.18 81.9138 22.18C80.7191 22.18 79.7964 22.02 79.1458 21.7C78.5058 21.38 78.1858 20.7987 78.1858 19.956C78.1858 19.284 78.5698 18.6493 79.3378 18.052C78.9431 17.7853 78.7458 17.38 78.7458 16.836C78.7458 16.6227 78.9058 16.2707 79.2258 15.78L79.3698 15.556C78.6444 15.0333 78.2818 14.2653 78.2818 13.252C78.2818 12.228 78.5858 11.4867 79.1938 11.028C79.8124 10.5693 80.6284 10.34 81.6418 10.34C82.1004 10.34 82.5538 10.3933 83.0018 10.5L83.2578 10.548L85.8338 10.468V12.18L84.6338 12.084C84.8684 12.4467 84.9858 12.8093 84.9858 13.172C84.9858 14.2387 84.7138 14.9747 84.1698 15.38C83.6258 15.7853 82.7724 15.988 81.6098 15.988C81.3644 15.988 81.1458 15.9667 80.9538 15.924C80.8471 16.2013 80.7938 16.4307 80.7938 16.612C80.7938 16.7827 80.8844 16.9 81.0658 16.964C81.2471 17.028 81.6738 17.0653 82.3458 17.076C83.6898 17.0867 84.6071 17.268 85.0978 17.62C85.5884 17.9613 85.8338 18.5853 85.8338 19.492ZM80.2978 19.732C80.2978 20.1907 80.8578 20.42 81.9778 20.42C83.1084 20.42 83.6738 20.1533 83.6738 19.62C83.6738 19.332 83.5778 19.1453 83.3858 19.06C83.1938 18.9853 82.7884 18.9427 82.1698 18.932L80.7298 18.82C80.4418 19.108 80.2978 19.412 80.2978 19.732ZM80.4258 13.188C80.4258 13.9667 80.8311 14.356 81.6418 14.356C82.4631 14.356 82.8738 13.9667 82.8738 13.188C82.8738 12.3987 82.4631 12.004 81.6418 12.004C80.8311 12.004 80.4258 12.3987 80.4258 13.188ZM88.8926 15.412C88.9033 15.9027 89.0313 16.26 89.2766 16.484C89.5326 16.6973 89.8953 16.804 90.3646 16.804C91.3566 16.804 92.242 16.772 93.0206 16.708L93.4686 16.66L93.5006 18.244C92.274 18.5427 91.1646 18.692 90.1726 18.692C88.9673 18.692 88.0926 18.372 87.5486 17.732C87.0046 17.092 86.7326 16.052 86.7326 14.612C86.7326 11.7427 87.9113 10.308 90.2686 10.308C92.594 10.308 93.7566 11.5133 93.7566 13.924L93.5966 15.412H88.8926ZM91.6446 13.78C91.6446 13.14 91.5433 12.6973 91.3406 12.452C91.138 12.196 90.7806 12.068 90.2686 12.068C89.7673 12.068 89.41 12.2013 89.1966 12.468C88.994 12.724 88.8873 13.1613 88.8766 13.78H91.6446Z" fill="#3011BC"/>
</svg>
