<svg width="62" height="62" viewBox="0 0 62 62" fill="none" xmlns="http://www.w3.org/2000/svg">
<path d="M32.2601 17.5441C31.7343 17.0178 30.8811 17.0178 30.3544 17.5441C29.8281 18.07 29.8281 18.9236 30.3544 19.4498L40.5609 29.6563H18.4426C17.6962 29.6563 17.0907 30.2617 17.0907 31.0082C17.0907 31.7551 17.6962 32.3601 18.4426 32.3601H40.5473L30.3409 42.5665C30.0877 42.8189 29.9454 43.1622 29.9454 43.5196C29.9454 43.8774 30.0877 44.2199 30.3409 44.4727C30.5941 44.728 30.9408 44.8694 31.3007 44.8647C31.6593 44.863 32.0036 44.7225 32.2601 44.4727L44.7648 31.9685C45.0192 31.7136 45.1611 31.3676 45.1573 31.0082C45.1547 30.6496 45.0142 30.3066 44.7648 30.0488L32.2601 17.5441Z" fill="#FFFEFE"/>
<path d="M31.0146 1.94344C19.259 1.94133 8.66004 9.02223 4.16144 19.8832C-0.336318 30.7447 2.15157 43.2459 10.4667 51.556C21.8154 62.9047 40.2146 62.9047 51.563 51.556C62.9113 40.208 62.9113 21.8089 51.563 10.4601C46.1253 4.99149 38.7264 1.92481 31.0146 1.94344ZM31.0146 57.3692C16.4823 57.3692 4.65385 45.5403 4.65385 31.008C4.65385 16.4757 16.4823 4.64726 31.0146 4.64726C45.5469 4.64726 57.3758 16.4757 57.3758 31.008C57.3758 45.5403 45.5469 57.3692 31.0146 57.3692Z" fill="#FFFEFE"/>
</svg>
