<svg width="13" height="12" viewBox="0 0 13 12" fill="none" xmlns="http://www.w3.org/2000/svg">
<path d="M0.8125 11C0.8125 11.457 1.16797 11.8125 1.625 11.8125H5.6875V7.75H0.8125V11ZM7.3125 11.8125H11.375C11.8066 11.8125 12.1875 11.457 12.1875 11V7.75H7.3125V11.8125ZM12.1875 3.6875H11.0957C11.2734 3.38281 11.375 3.05273 11.375 2.67188C11.375 1.45312 10.3594 0.4375 9.14062 0.4375C8.07422 0.4375 7.38867 0.996094 6.52539 2.18945C5.63672 0.996094 4.95117 0.4375 3.91016 0.4375C2.66602 0.4375 1.67578 1.45312 1.67578 2.67188C1.67578 3.05273 1.75195 3.38281 1.92969 3.6875H0.8125C0.355469 3.6875 0 4.06836 0 4.5V6.53125C0 6.75977 0.177734 6.9375 0.40625 6.9375H12.5938C12.7969 6.9375 13 6.75977 13 6.53125V4.5C13 4.06836 12.6191 3.6875 12.1875 3.6875ZM3.88477 3.6875C3.32617 3.6875 2.86914 3.25586 2.86914 2.67188C2.86914 2.11328 3.32617 1.65625 3.88477 1.65625C4.39258 1.65625 4.77344 1.75781 6.09375 3.6875H3.88477ZM9.14062 3.6875H6.93164C8.25195 1.75781 8.60742 1.65625 9.14062 1.65625C9.69922 1.65625 10.1562 2.11328 10.1562 2.67188C10.1562 3.25586 9.69922 3.6875 9.14062 3.6875Z" fill="#FFFEFE"/>
</svg>
